PathFileType	4	(X/Y/Z)	C:/Users/beibeiliu/ov580/test_trc/User3\sequence.18_training_dense_left.trc
DataRate	CameraRate	NumFrames	NumMarkers	Units	OrigDataRate	OrigDataStartFrame	OrigNumFrames
120	120	9	19	mm	120	131	261
Frame#	Time	ThumbCMC			ThumbMCP			ThumbIP			ThumbTip			IndexMCP			IndexPIP			IndexTip			MiddleMCP			MiddlePIP			MiddleTip			RingMCP			RingPIP			RingTip			PinkyMCP			PinkyPIP			PinkyTip			BackHand1			BackHand2			BackHand3	
		X0	Y0	Z0	X1	Y1	Z1	X2	Y2	Z2	X3	Y3	Z3	X4	Y4	Z4	X5	Y5	Z5	X6	Y6	Z6	X7	Y7	Z7	X8	Y8	Z8	X9	Y9	Z9	X10	Y10	Z10	X11	Y11	Z11	X12	Y12	Z12	X13	Y13	Z13	X14	Y14	Z14	X15	Y15	Z15	X16	Y16	Z16	X17	Y17	Z17	X18	Y18	Z18	
130	1.08333	-176.472	-6.93064	11.8649	-159.315	-7.20642	-13.0271	-143.349	-14.7097	-36.6765	-130.563	-19.5053	-52.9318	-143.027	-46.6588	-37.262	-117.305	-51.2465	-14.2763	-141.311	-36.2323	5.5249	-144.416	-67.9381	-28.7507	-121.793	-66.5749	-5.19326	-145.361	-47.7877	19.4359	-155.355	-84.2036	-16.1676	-132.588	-74.2623	7.61716	-157.264	-54.179	19.7867	-169.429	-96.8503	-12.4088	-144.211	-103.04	-10.6902	-127.184	-90.1894	11.1705	-206.384	-62.9218	-6.20186	-218.748	-48.503	21.7791	-202.404	-23.7698	0.600463	
131	1.09167	-181.223	-5.90556	12.7006	-162.936	-5.65973	-11.8916	-145.971	-9.11465	-34.7824	-130.815	-16.3035	-51.0252	-138.728	-44.6233	-35.2807	-114.154	-40.6569	-16.8586	-136.651	-30.3662	6.48879	-137.081	-64.0745	-25.8314	-117.049	-54.5773	-1.72597	-147.647	-40.656	20.7994	-144.036	-78.2934	-11.0407	-126.559	-67.9212	12.7117	-152.806	-51.6781	24.1515	-160.15	-92.0824	-7.61248	-133.253	-99.0906	-5.6895	-111.881	-84.7152	13.1083	-201.216	-66.7637	0.749625	-217.197	-51.2236	21.819	-203.934	-28.8181	1.3426	
132	1.1	-185.698	-6.05013	8.16871	-165.798	-2.21555	-15.9511	-148.55	-7.64204	-38.3144	-133.154	-10.1288	-50.6335	-137.352	-42.7088	-32.2808	-113.314	-33.1994	-11.9103	-137.146	-20.7945	7.28267	-130.66	-58.4364	-21.1619	-115.186	-45.1515	3.28879	-150.44	-33.9685	20.8547	-134.712	-69.5071	-8.90234	-122.219	-56.5108	16.5498	-149.572	-41.6871	24.2011	-150.474	-88.7851	-2.2443	-122.085	-91.5283	-3.0049	-101.035	-78.062	11.3269	-191.99	-67.9	1.63134	-214.868	-54.0659	26.3876	-201.702	-33.6114	-4.64457	
133	1.10833	-189.569	-4.69902	3.05277	-171.9	-0.641225	-16.2742	-151.386	-5.95921	-37.5792	-133.589	-7.42812	-55.9086	-136.489	-37.4101	-32.3948	-114.812	-24.3976	-11.1714	-142.238	-15.2269	7.57044	-128.6	-53.6589	-17.8862	-115.174	-31.8186	2.52738	-149.753	-28.8314	20.6009	-132.001	-69.4661	-2.61892	-117.914	-47.3141	15.2135	-150.088	-36.3093	24.2651	-142.306	-87.7865	5.26408	-116.528	-89.0947	2.1181	-94.6982	-75.5842	6.01483	-191.315	-69.457	6.36227	-211.052	-59.1057	27.2273	-203.052	-38.7786	-1.145	
134	1.11667	-194.053	-6.06785	4.51647	-173.433	-5.28869	-19.3905	-154.611	-5.63718	-40.4128	-138.136	-3.91768	-55.2407	-135.498	-34.0731	-31.3332	-119.295	-10.5697	-10.531	-144.399	-11.9209	7.22137	-126.932	-45.5742	-18.0682	-115.327	-25.4581	3.69533	-156.219	-22.5161	15.5534	-127.196	-61.8386	-1.06563	-117.519	-37.2279	17.2744	-151.57	-32.9678	26.85	-133.472	-83.1288	5.68126	-110.339	-78.3173	0.404114	-87.9337	-68.7822	1.60155	-181.657	-70.974	6.44501	-206.166	-62.1661	23.2496	-201.625	-41.3794	-4.87197	
135	1.125	-200.524	-6.97402	2.5941	-181.308	-2.0938	-20.7849	-159.765	-3.34384	-44.3986	-145.669	1.86865	-60.7392	-132.961	-26.9763	-30.4341	-123.29	-7.62075	-7.72163	-152.191	-10.3725	6.76443	-127.208	-39.8312	-17.4179	-120.29	-15.961	1.90553	-160.307	-25.1271	15.9316	-125.311	-49.8037	-3.23573	-120.417	-29.1244	20.5015	-153.312	-25.5985	25.0472	-134.064	-73.9072	7.87607	-107.019	-72.3301	1.8209	-85.4161	-66.7443	-0.272072	-181.284	-69.4127	5.66718	-201.16	-66.469	26.4697	-201.433	-43.0794	-4.91724	
136	1.13333	-200.609	-11.2528	-1.08917	-185.232	-4.03258	-26.3031	-169.46	0.355577	-47.1073	-153.765	3.0776	-65.5414	-136.527	-20.1357	-32.2764	-128.49	-0.871683	-9.38541	-156.935	-6.18647	5.41538	-128.473	-32.7419	-19.4875	-126.888	-7.84406	1.84561	-165.69	-19.0394	9.9281	-127.14	-45.9697	-2.62171	-121.658	-22.734	14.8138	-157.535	-23.1318	24.5526	-127.662	-68.281	3.66762	-107.345	-66.1915	1.83626	-83.3525	-58.8432	-6.09156	-181.481	-66.3068	5.19215	-201.769	-66.1875	25.1441	-201.343	-45.3412	-5.67932	
137	1.14167	-207.087	-11.5019	-2.98377	-194.735	-2.06764	-26.9496	-174.667	-1.62311	-50.6484	-161.239	3.1976	-68.6434	-145.128	-16.9129	-36.7996	-138.631	9.09074	-14.1814	-167.413	-0.597569	-0.883534	-135.774	-28.4057	-22.7854	-133.189	-1.14932	-0.472555	-167.749	-17.8169	10.726	-129.568	-41.6247	-5.21106	-125.599	-17.7461	14.1395	-161.676	-18.2897	20.4515	-130.217	-60.4155	0.669379	-108.311	-55.7074	-3.4546	-91.1317	-51.8709	-10.5839	-181.765	-65.6929	2.46481	-202.925	-63.285	24.172	-205.552	-43.3933	-9.96327	
138	1.15	-214.864	-8.91608	-2.44445	-201.56	-2.11808	-27.9108	-184.439	0.710818	-57.7822	-173.158	6.39261	-73.2704	-150.367	-11.2056	-40.484	-144.62	11.2592	-15.6624	-175.196	-0.354632	-4.28245	-137.02	-22.4017	-25.8204	-139.639	2.26707	-3.9312	-172.74	-13.9116	7.45114	-134.989	-36.0905	-12.1992	-131.302	-10.0886	6.71485	-161.399	-16.0651	20.6953	-133.922	-53.3156	-6.47406	-111.842	-49.2122	-10.1028	-96.0955	-43.778	-17.488	-180.67	-66.1301	-1.74365	-206.92	-61.5417	22.6346	-208.664	-41.8412	-12.6399	
